<?xml version="1.0" encoding="UTF-8"?>
<svg width="243.47mm" height="45.784mm" version="1.1" viewBox="0 0 243.47 45.784" xmlns="http://www.w3.org/2000/svg" xmlns:cc="http://creativecommons.org/ns#" xmlns:dc="http://purl.org/dc/elements/1.1/" xmlns:rdf="http://www.w3.org/1999/02/22-rdf-syntax-ns#">
 <metadata>
  <rdf:RDF>
   <cc:Work rdf:about="">
    <dc:format>image/svg+xml</dc:format>
    <dc:type rdf:resource="http://purl.org/dc/dcmitype/StillImage"/>
    <dc:title/>
   </cc:Work>
  </rdf:RDF>
 </metadata>
 <g transform="translate(.33725 -58.706)">
  <g transform="matrix(.064155 0 0 .065292 24.693 71.059)">
   <path d="m496.16 280.65c0 26.392-4.586 51.741-13.036 75.376-29.987 83.846-108.59 145.89-203.36 154.85-7.809 0.744-15.742 1.126-23.758 1.126-132.63 0-240.16-103.59-240.16-231.35 0-42.548 11.931-78.196 32.735-106.82 17.075-23.479 40.121-42.228 67.453-56.183 1.271-0.651 2.562-1.291 3.853-1.921 38.685-18.841 85.582-28.355 136.11-28.355 8.016 0 15.939 0.238 23.758 0.723 40.038 2.438 77.173 11.156 108.99 26.031 1.291 0.589 2.572 1.209 3.843 1.828 62.577 30.656 103.56 85.807 103.56 164.7z" fill="#cd2a00"/>
   <path d="m496.16 280.65c0 26.392-4.586 51.741-13.036 75.376-38.602 58.507-103.73 99.175-179.08 106.3-7.809 0.744-15.742 1.126-23.758 1.126-132.63 0-240.16-103.59-240.16-231.35 0-21.135 2.944-40.565 8.45-58.27 17.075-23.479 40.121-42.228 67.453-56.183 39.407-20.113 87.74-30.277 139.97-30.277 8.016 0 15.939 0.238 23.758 0.723 41.66 2.541 80.179 11.869 112.83 27.859 62.579 30.658 103.57 85.809 103.57 164.7z" fill="#ff3501"/>
   <path d="m395.17 193.61-53.694-48.188c-6.859-6.167-4.194-17.664 4.648-20.009l39.764-10.535c0.966-0.256 1.086-1.589 0.177-2.002-30.992-14.092-67.03-23.673-105.62-26.11l0.158-62.159c0-13.534-11.073-24.606-24.606-24.606s-24.605 11.072-24.605 24.605l-0.158 62.172c-38.799 2.464-74.74 12.03-105.83 26.327-1.834 0.843-1.552 3.536 0.414 3.991l33.861 7.85c9.245 2.138 12.024 14.224 4.679 20.35l-51.111 42.662c-4.7 3.915-0.599 11.58 5.165 9.638l99.795-33.716c6.167-2.076 12.788 1.539 14.524 7.933l17.581 64.819c1.498 5.506 9.152 5.444 10.557-0.093l16.29-64.168c1.704-6.735 8.77-10.433 15.112-7.923l97.316 38.581c5.694 2.264 10.167-5.288 5.581-9.419z" fill="#5eac24"/>
  </g>
  <g transform="matrix(.064155 0 0 .065292 86.75 71.059)">
   <path d="m496.16 280.65c0 26.392-4.586 51.741-13.036 75.376-29.987 83.846-108.59 145.89-203.36 154.85-7.809 0.744-15.742 1.126-23.758 1.126-132.63 0-240.16-103.59-240.16-231.35 0-42.548 11.931-78.196 32.735-106.82 17.075-23.479 40.121-42.228 67.453-56.183 1.271-0.651 2.562-1.291 3.853-1.921 38.685-18.841 85.582-28.355 136.11-28.355 8.016 0 15.939 0.238 23.758 0.723 40.038 2.438 77.173 11.156 108.99 26.031 1.291 0.589 2.572 1.209 3.843 1.828 62.577 30.656 103.56 85.807 103.56 164.7z" fill="#cd2a00"/>
   <path d="m496.16 280.65c0 26.392-4.586 51.741-13.036 75.376-38.602 58.507-103.73 99.175-179.08 106.3-7.809 0.744-15.742 1.126-23.758 1.126-132.63 0-240.16-103.59-240.16-231.35 0-21.135 2.944-40.565 8.45-58.27 17.075-23.479 40.121-42.228 67.453-56.183 39.407-20.113 87.74-30.277 139.97-30.277 8.016 0 15.939 0.238 23.758 0.723 41.66 2.541 80.179 11.869 112.83 27.859 62.579 30.658 103.57 85.809 103.57 164.7z" fill="#ff3501"/>
   <path d="m395.17 193.61-53.694-48.188c-6.859-6.167-4.194-17.664 4.648-20.009l39.764-10.535c0.966-0.256 1.086-1.589 0.177-2.002-30.992-14.092-67.03-23.673-105.62-26.11l0.158-62.159c0-13.534-11.073-24.606-24.606-24.606s-24.605 11.072-24.605 24.605l-0.158 62.172c-38.799 2.464-74.74 12.03-105.83 26.327-1.834 0.843-1.552 3.536 0.414 3.991l33.861 7.85c9.245 2.138 12.024 14.224 4.679 20.35l-51.111 42.662c-4.7 3.915-0.599 11.58 5.165 9.638l99.795-33.716c6.167-2.076 12.788 1.539 14.524 7.933l17.581 64.819c1.498 5.506 9.152 5.444 10.557-0.093l16.29-64.168c1.704-6.735 8.77-10.433 15.112-7.923l97.316 38.581c5.694 2.264 10.167-5.288 5.581-9.419z" fill="#5eac24"/>
  </g>
  <g>
   <path d="m27.349 78.581q-2.6035 16.129-13.652 15.494-5.969-0.381-10.096-3.937l-0.4445 0.3175v2.6035q-0.0635 3.7465 0.635 5.5245 0.0635 0.1905 0.6985 1.3335 0.635 1.0795 0.635 1.3335 0 0.762-0.5715 1.397-0.5715 0.6985-1.397 0.6985-1.905 0-2.667-1.27-0.508-0.9525-0.635-3.048-0.1905-3.2385-0.1905-6.5405 0-1.905 0.254-5.715 0.3175-3.81 0.254-5.7785 0-2.032 0.3175-5.9055 0.3175-3.937 0.3175-5.842v-6.0325q0-0.4445-0.254-1.397-0.1905-0.9525-0.1905-1.397 0-1.2065 1.651-1.2065 1.0795 0 1.778 0.9525 0.762 0.9525 0.762 2.032 0 0.8255-0.381 2.3495-0.3175 1.524-0.3175 2.3495l0.0635 1.651q1.4605-2.54 2.921-5.08 3.429-4.7625 9.0805-4.7625 6.096 0 9.2075 5.0165 2.54 4.1275 2.54 10.478 0 2.2225-0.3175 4.3815zm-2.794-3.6195q0-4.953-1.7145-8.6995-2.2225-4.8895-6.5405-4.8895-5.588 0-9.4615 7.4295-3.302 6.35-3.302 12.509v3.3655q0.635-0.3175 0.9525-0.3175 0.4445 0 0.762 0.635 0.381 0.635 0.635 0.8255-0.0635 0.1905-0.1905 0.127t-0.127 0.127q0 0.3175 0.508 1.143 2.4765 3.81 7.62 3.81 4.826 0 7.239-3.175 1.8415-2.3495 2.921-7.493 0.6985-3.6195 0.6985-5.3975z" style="white-space:pre"/>
   <path d="m86.932 102.97q-1.3335 0.8255-2.032 0.8255-0.4445 0-1.27-0.4445 0.0635-1.016 0.0635-3.429 0.0635-2.2225 0.0635-3.429 0-19.558-4.064-19.558-2.413 0-4.191 6.096-1.397 4.8895-1.397 8.255v6.35q0 0.508 0.254 1.4605 0.3175 0.889 0.3175 1.3335 0 0.508-0.6985 1.016t-1.2065 0.508q-0.5715 0-1.27-0.762-0.6985-0.8255-0.6985-1.397v-12.764q0-2.032-0.6985-5.1435-0.889-3.937-2.159-3.937-0.6985 0-2.0955 1.778-4.7625 6.096-4.7625 14.986 0 1.0795 0.254 3.2385 0.254 2.0955 0.254 3.1115 0 1.905-1.5875 1.905-0.762 0-1.3335-0.635-0.254-0.3175-0.5715-2.8575-0.3175-2.286-0.3175-3.1115v-14.986q0-6.477 1.524-6.477 0.635 0 1.27 0.635 0.6985 0.5715 0.6985 1.2065 0 1.3335-0.381 3.4925-0.381 2.794-0.4445 3.4925l0.3175 0.3175q1.2065-2.7305 2.413-5.461 1.7145-3.4925 4.064-3.4925 3.302 0 5.715 7.112 0.635-0.762 1.5875-3.175 0.9525-2.413 1.7145-3.429 1.2065-1.524 2.9845-1.524 1.7145 0 3.81 2.286 3.8735 4.1275 3.8735 14.922z" style="white-space:pre"/>
   <path d="m158.07 62.96q0 1.5875-1.0795 1.5875 0.127 0-1.397-0.6985-0.9525-0.508-4.8895-0.508h-2.8575q-1.524 0-1.905 0.508-0.381 0.4445-0.635 2.159-0.1905 1.651-0.6985 4.953-1.2065 9.7155-1.2065 20.764 0 8.1915 1.7145 11.049 0 0.889-0.635 0.889-3.302 0-4.191-3.81-0.381-1.4605-0.381-6.35 0-7.112 0.254-10.732 0.0635-1.7145 0.6985-8.001 0.508-5.0165 0.508-8.001 0-3.6195 0.0635-1.778-0.0635-0.9525-0.8255-0.9525-1.143 0-3.429 0.4445-2.2225 0.4445-3.3655 0.4445-2.54 0-3.302-2.032 0.635-1.0795 9.4615-2.159 7.366-0.8255 10.732-0.8255 7.366 0 7.366 3.048z" style="white-space:pre"/>
   <path d="m166.55 68.231q0 2.159-2.032 2.159-1.2065 0-2.2225-0.889t-1.016-2.032q0-2.159 2.159-2.159 1.27 0 2.159 0.8255 0.9525 0.8255 0.9525 2.0955zm-1.2065 9.525q0 1.143-0.508 3.429-0.508 2.286-0.508 3.429v14.034q0 1.397 0.5715 3.81-0.254 0.508-0.6985 0.508-3.1115 0-3.1115-2.9845v-23.304q0.8255-0.4445 1.5875-0.4445t1.5875 0.4445q1.0795 0.4445 1.0795 1.0795z" style="white-space:pre"/>
   <path d="m200.44 102.97q-1.3335 0.8255-2.032 0.8255-0.4445 0-1.27-0.4445 0.0635-1.016 0.0635-3.429 0.0635-2.2225 0.0635-3.429 0-19.558-4.064-19.558-2.413 0-4.191 6.096-1.397 4.8895-1.397 8.255v6.35q0 0.508 0.25401 1.4605 0.3175 0.889 0.3175 1.3335 0 0.508-0.69851 1.016-0.69849 0.508-1.2065 0.508-0.5715 0-1.27-0.762-0.6985-0.8255-0.6985-1.397v-12.764q0-2.032-0.69849-5.1435-0.88901-3.937-2.159-3.937-0.69851 0-2.0955 1.778-4.7625 6.096-4.7625 14.986 0 1.0795 0.25399 3.2385 0.254 2.0955 0.254 3.1115 0 1.905-1.5875 1.905-0.762 0-1.3335-0.635-0.254-0.3175-0.5715-2.8575-0.3175-2.286-0.3175-3.1115v-14.986q0-6.477 1.524-6.477 0.63501 0 1.27 0.635 0.6985 0.5715 0.6985 1.2065 0 1.3335-0.381 3.4925-0.381 2.794-0.4445 3.4925l0.3175 0.3175q1.2065-2.7305 2.413-5.461 1.7145-3.4925 4.064-3.4925 3.302 0 5.715 7.112 0.635-0.762 1.5875-3.175 0.9525-2.413 1.7145-3.429 1.2065-1.524 2.9845-1.524 1.7145 0 3.81 2.286 3.8735 4.1275 3.8735 14.922z" style="white-space:pre"/>
   <path d="m224.62 96.298q0 2.794-3.7465 5.0165-3.3655 2.032-6.35 2.032-8.509 0-8.509-10.795 0-4.7625 1.7145-10.224 2.286-7.112 5.842-7.112 3.048 0 6.6675 3.1115 3.6195 3.048 3.6195 6.096 0 3.937-3.175 6.858t-7.1755 2.921q-0.381 0-1.651-0.635-1.2065-0.635-1.651-0.635-0.8255 0-0.8255 0.508 0 7.3025 4.826 7.3025 2.4765 0 4.572-1.651 1.27-0.9525 2.794-2.9845 1.2065-1.5875 1.5875-1.5875 1.4605 0 1.4605 1.778zm-4.3815-11.684q0-2.2225-1.27-4.1275-1.27-1.9685-3.3655-1.9685-2.54 0-4.1275 3.175-1.3335 2.667-1.3335 5.5245 0 1.8415 1.143 3.1115 1.2065 1.2065 3.048 1.2065 2.6035 0 4.318-2.2225 1.5875-2.032 1.5875-4.699z" style="white-space:pre"/>
   <path d="m243.13 79.978q0 0.254-0.0635 1.0795-0.8255 1.27-1.5875 1.27-0.508 0-0.889-0.635-0.1905-4.0005-3.302-4.0005-2.032 0-4.0005 7.493-0.762 2.7305-0.762 7.3025 0 5.842 0.3175 7.1755 0.0635 0.1905 0.3175 0.8255 0.254 0.5715 0.254 0.889 0 1.397-1.905 1.397-2.159 0-2.159-2.2225 0-0.3175 0.127-0.889 0.1905-0.635 0.1905-0.9525 0-3.4925-0.3175-10.478t-0.3175-10.477q0-1.27 0.4445-1.524 0.4445-0.3175 1.7145-0.3175 1.5875 0 1.8415 1.143 0.0635 1.27 0.127 2.4765 1.651-2.54 1.905-2.8575 1.397-1.5875 2.921-1.5875 1.143 0 2.286 0.6985 0.635 0.381 1.7145 1.9685 1.143 1.5875 1.143 2.2225z" style="white-space:pre"/>
  </g>
 </g>
</svg>
